<?xml version="1.0" encoding="UTF-8"?>
<svg id="Layer_2" data-name="Layer 2" xmlns="http://www.w3.org/2000/svg" viewBox="0 0 298.24 90.76">
  <defs>
    <style>
      .cls-1 {
        fill: #112145;
      }

      .cls-2, .cls-3 {
        fill: #582bd9;
      }

      .cls-3 {
        stroke: #582bd9;
        stroke-miterlimit: 10;
        stroke-width: 2px;
      }
    </style>
  </defs>
  <g id="Logos">
    <g>
      <path class="cls-1" d="M0,22.21h13.6v6.23h.19c.44-.88,1.07-1.76,1.89-2.64.82-.88,1.79-1.67,2.93-2.36,1.13-.69,2.42-1.26,3.87-1.7,1.45-.44,3.02-.66,4.72-.66,3.21,0,6.06.66,8.55,1.98,2.49,1.32,4.36,3.4,5.62,6.23,1.64-2.96,3.62-5.07,5.95-6.33,2.33-1.26,5.19-1.89,8.59-1.89,3.08,0,5.68.52,7.79,1.56,2.11,1.04,3.78,2.46,5,4.25s2.11,3.9,2.64,6.33c.53,2.42.8,5.02.8,7.79v27.1h-14.16v-26.72c0-2.14-.46-3.98-1.37-5.52-.91-1.54-2.54-2.31-4.86-2.31-1.64,0-3.01.27-4.11.8-1.1.54-1.98,1.27-2.64,2.22-.66.94-1.13,2.05-1.42,3.31-.28,1.26-.43,2.58-.43,3.97v24.27h-14.16v-24.27c0-.82-.03-1.83-.09-3.02-.06-1.19-.28-2.33-.66-3.4-.38-1.07-.99-1.98-1.84-2.74-.85-.76-2.09-1.13-3.73-1.13-1.83,0-3.31.33-4.44.99-1.13.66-2,1.54-2.6,2.64-.6,1.1-.99,2.35-1.18,3.73-.19,1.39-.28,2.83-.28,4.34v22.85H0V22.21Z"/>
      <path class="cls-1" d="M77.45,45.15c0-3.65.66-6.96,1.98-9.92,1.32-2.96,3.13-5.49,5.43-7.6,2.3-2.11,5-3.73,8.12-4.86,3.12-1.13,6.44-1.7,9.96-1.7s6.85.57,9.96,1.7c3.12,1.13,5.82,2.75,8.12,4.86,2.3,2.11,4.11,4.64,5.43,7.6,1.32,2.96,1.98,6.27,1.98,9.92s-.66,6.96-1.98,9.92c-1.32,2.96-3.13,5.49-5.43,7.6-2.3,2.11-5,3.73-8.12,4.86-3.12,1.13-6.44,1.7-9.96,1.7s-6.85-.57-9.96-1.7c-3.12-1.13-5.82-2.75-8.12-4.86-2.3-2.11-4.11-4.64-5.43-7.6-1.32-2.96-1.98-6.26-1.98-9.92ZM91.62,45.15c0,3.46.99,6.26,2.97,8.4,1.98,2.14,4.77,3.21,8.36,3.21s6.37-1.07,8.36-3.21c1.98-2.14,2.97-4.94,2.97-8.4s-.99-6.26-2.97-8.4c-1.98-2.14-4.77-3.21-8.36-3.21s-6.37,1.07-8.36,3.21c-1.98,2.14-2.97,4.94-2.97,8.4Z"/>
      <path class="cls-1" d="M148.11,71.5c0,2.96-.28,5.62-.85,7.98s-1.51,4.37-2.83,6.04c-1.32,1.67-3.07,2.96-5.24,3.87-2.17.91-4.86,1.37-8.07,1.37-1.07,0-2.17-.05-3.31-.14-1.13-.09-2.23-.3-3.31-.61l.76-12.56c1.13.57,2.36.85,3.68.85,1.19,0,2.14-.32,2.83-.94.69-.63,1.19-1.42,1.51-2.36.31-.94.5-1.95.57-3.02.06-1.07.09-2.05.09-2.93V22.21h14.16v49.29Z"/>
      <path class="cls-1" d="M153.61,45.15c0-3.65.66-6.96,1.98-9.92,1.32-2.96,3.13-5.49,5.43-7.6,2.3-2.11,5-3.73,8.12-4.86,3.12-1.13,6.44-1.7,9.96-1.7s6.85.57,9.96,1.7c3.12,1.13,5.82,2.75,8.12,4.86,2.3,2.11,4.11,4.64,5.43,7.6,1.32,2.96,1.98,6.27,1.98,9.92s-.66,6.96-1.98,9.92c-1.32,2.96-3.13,5.49-5.43,7.6-2.3,2.11-5,3.73-8.12,4.86-3.12,1.13-6.44,1.7-9.96,1.7s-6.85-.57-9.96-1.7c-3.12-1.13-5.82-2.75-8.12-4.86-2.3-2.11-4.11-4.64-5.43-7.6-1.32-2.96-1.98-6.26-1.98-9.92ZM167.77,45.15c0,3.46.99,6.26,2.97,8.4,1.98,2.14,4.77,3.21,8.36,3.21s6.37-1.07,8.36-3.21c1.98-2.14,2.97-4.94,2.97-8.4s-.99-6.26-2.97-8.4c-1.98-2.14-4.77-3.21-8.36-3.21s-6.37,1.07-8.36,3.21c-1.98,2.14-2.97,4.94-2.97,8.4Z"/>
      <path class="cls-1" d="M230.49,50.25h-23.23v-11.33h23.23v11.33Z"/>
      <path class="cls-2" d="M235.05,22.21h14.16v45.89h-14.16V22.21Z"/>
      <path class="cls-2" d="M285.21,62.34h-.19c-1.57,2.46-3.67,4.22-6.28,5.29-2.61,1.07-5.37,1.61-8.26,1.61-2.14,0-4.2-.3-6.19-.9-1.98-.6-3.73-1.49-5.24-2.69-1.51-1.2-2.71-2.68-3.59-4.44-.88-1.76-1.32-3.81-1.32-6.14,0-2.64.49-4.88,1.46-6.7.98-1.83,2.3-3.34,3.97-4.53,1.67-1.2,3.57-2.12,5.71-2.79,2.14-.66,4.36-1.15,6.66-1.46,2.3-.31,4.59-.5,6.89-.57,2.3-.06,4.42-.09,6.37-.09,0-2.52-.9-4.52-2.69-6-1.79-1.48-3.92-2.22-6.37-2.22s-4.45.49-6.37,1.46c-1.92.98-3.64,2.31-5.15,4.01l-7.55-7.74c2.64-2.46,5.73-4.3,9.25-5.52,3.52-1.23,7.18-1.84,10.95-1.84,4.15,0,7.57.52,10.25,1.56,2.67,1.04,4.82,2.57,6.42,4.58,1.61,2.02,2.72,4.49,3.35,7.41.63,2.93.94,6.31.94,10.15v23.32h-13.03v-5.76ZM281.72,47.99c-1.07,0-2.41.05-4.01.14-1.61.09-3.15.36-4.63.8-1.48.44-2.74,1.1-3.78,1.98-1.04.88-1.56,2.11-1.56,3.68,0,1.7.72,2.96,2.17,3.78,1.45.82,2.96,1.23,4.53,1.23,1.38,0,2.72-.19,4.01-.57,1.29-.38,2.44-.91,3.45-1.6,1.01-.69,1.81-1.57,2.41-2.64.6-1.07.9-2.33.9-3.78v-3.02h-3.49Z"/>
      <path class="cls-2" d="M132.81,7.76c0-1.18.21-2.24.64-3.19.43-.95,1.01-1.77,1.75-2.45.74-.68,1.61-1.2,2.62-1.57,1-.37,2.07-.55,3.21-.55s2.21.18,3.21.55c1,.37,1.88.89,2.62,1.57.74.68,1.32,1.5,1.75,2.45.43.95.64,2.02.64,3.19s-.21,2.24-.64,3.19c-.43.95-1.01,1.77-1.75,2.45-.74.68-1.61,1.2-2.62,1.57-1,.37-2.07.55-3.21.55s-2.21-.18-3.21-.55c-1-.37-1.88-.89-2.62-1.57-.74-.68-1.32-1.5-1.75-2.45-.43-.95-.64-2.02-.64-3.19ZM137.37,7.76c0,1.12.32,2.02.96,2.71.64.69,1.54,1.03,2.69,1.03s2.05-.34,2.69-1.03c.64-.69.96-1.59.96-2.71s-.32-2.02-.96-2.71c-.64-.69-1.54-1.03-2.69-1.03s-2.05.35-2.69,1.03c-.64.69-.96,1.59-.96,2.71Z"/>
      <path class="cls-2" d="M234.48,8.22c0-1.1.2-2.09.59-2.97.4-.89.94-1.65,1.63-2.28.69-.63,1.5-1.12,2.44-1.46.93-.34,1.93-.51,2.99-.51s2.05.17,2.99.51c.93.34,1.75.83,2.44,1.46.69.63,1.23,1.39,1.63,2.28.4.89.59,1.88.59,2.97s-.2,2.09-.59,2.97c-.4.89-.94,1.65-1.63,2.28-.69.63-1.5,1.12-2.44,1.46-.93.34-1.93.51-2.99.51s-2.05-.17-2.99-.51c-.93-.34-1.75-.83-2.44-1.46-.69-.63-1.23-1.39-1.63-2.28-.4-.89-.59-1.88-.59-2.97ZM238.73,8.22c0,1.04.3,1.88.89,2.52.59.64,1.43.96,2.51.96s1.91-.32,2.51-.96c.59-.64.89-1.48.89-2.52s-.3-1.88-.89-2.52c-.59-.64-1.43-.96-2.51-.96s-1.91.32-2.51.96c-.6.64-.89,1.48-.89,2.52Z"/>
    </g>
    <line class="cls-3" x1="149.24" y1="8.22" x2="234.48" y2="8.22"/>
  </g>
</svg>